<svg xmlns="http://www.w3.org/2000/svg" viewBox="0 0 500 500">
  <path d="M247.2 16.9c-3.6 7.1-5.8 11.1-12.7 23.6A1096.8 1096.8 0 0 1 158.1 155a1520 1520 0 0 1-42.6 54l-5.6 7a466.4 466.4 0 0 0-22.8 32c-.7.6-1.2 1.5-7.5 12.2C54.2 303.1 45.2 345 53.1 383c1.6 7.8 1.8 8.7 4.8 17.8 3.1 9.5 14 31.9 18.4 37.7l7.5 10.2c5.8 7.8 16.1 20.2 19.8 23.7l10.3 10c5.1 4.9 9.3 8.7 9.5 8.5s-1.1-4.3-3-9c-14.1-36.5-17.6-67.5-10.5-93.9a92.7 92.7 0 0 1 11.5-23.4 82.3 82.3 0 0 1 47.6-30.2c7.2-1.9 32.8-2.6 41-1.1a74.6 74.6 0 0 1 37 18.1l4.8 4.8 4.4-4.4a39.8 39.8 0 0 1 12.6-9.6 73.6 73.6 0 0 1 19.7-7.6c34.1-8.5 71.6 3.4 90 28.3a91 91 0 0 1 15 38.1c.6 4.9.7 24.3.1 27.5a262.5 262.5 0 0 1-12.6 50c-3.3 7.5-5 11.9-4.7 12.2.7.6 16.8-14.8 24.2-23l8.3-9.2c6.5-7 18.1-24.6 24.6-37.5a153.3 153.3 0 0 0 13-35.8c3.7-12.2 4-39.6.7-57.1a234.4 234.4 0 0 0-37.2-84.9 643.3 643.3 0 0 0-37.4-49.2 976 976 0 0 1-67.4-93 1296 1296 0 0 1-31.4-52L265 33a410 410 0 0 1-9.1-17.3c-1.8-3.7-3.6-6.7-4-6.7s-2.5 3.5-4.7 7.9z"/>
</svg>
